<svg viewBox="0 0 960 640" xmlns="http://www.w3.org/2000/svg" font-family="'JetBrains Mono', 'Courier New', monospace">
  <defs>
    <linearGradient id="bgGrad" x1="0%" y1="0%" x2="100%" y2="100%">
      <stop offset="0%" style="stop-color:#060810"/>
      <stop offset="100%" style="stop-color:#0a0f1e"/>
    </linearGradient>
    <linearGradient id="nasGrad" x1="0%" y1="0%" x2="0%" y2="100%">
      <stop offset="0%" style="stop-color:#1a2744"/>
      <stop offset="100%" style="stop-color:#0f1a30"/>
    </linearGradient>
    <linearGradient id="macGrad" x1="0%" y1="0%" x2="0%" y2="100%">
      <stop offset="0%" style="stop-color:#1a2a1a"/>
      <stop offset="100%" style="stop-color:#0f1f0f"/>
    </linearGradient>
    <linearGradient id="gpuGrad" x1="0%" y1="0%" x2="0%" y2="100%">
      <stop offset="0%" style="stop-color:#2a1a2a"/>
      <stop offset="100%" style="stop-color:#1f0f1f"/>
    </linearGradient>
    <filter id="glow">
      <feGaussianBlur stdDeviation="3" result="blur"/>
      <feMerge><feMergeNode in="blur"/><feMergeNode in="SourceGraphic"/></feMerge>
    </filter>
    <filter id="softglow">
      <feGaussianBlur stdDeviation="6" result="blur"/>
      <feMerge><feMergeNode in="blur"/><feMergeNode in="SourceGraphic"/></feMerge>
    </filter>
    <marker id="arrow-cyan" markerWidth="8" markerHeight="8" refX="6" refY="3" orient="auto">
      <path d="M0,0 L0,6 L8,3 z" fill="#00d9ff"/>
    </marker>
    <marker id="arrow-green" markerWidth="8" markerHeight="8" refX="6" refY="3" orient="auto">
      <path d="M0,0 L0,6 L8,3 z" fill="#00ff88"/>
    </marker>
    <marker id="arrow-orange" markerWidth="8" markerHeight="8" refX="6" refY="3" orient="auto">
      <path d="M0,0 L0,6 L8,3 z" fill="#ff8c42"/>
    </marker>
    <marker id="arrow-blue" markerWidth="8" markerHeight="8" refX="6" refY="3" orient="auto">
      <path d="M0,0 L0,6 L8,3 z" fill="#5b8cff"/>
    </marker>
  </defs>

  <!-- Background -->
  <rect width="960" height="640" fill="url(#bgGrad)"/>

  <!-- Grid overlay (subtle) -->
  <g opacity="0.04">
    <line x1="0" y1="80" x2="960" y2="80" stroke="white" stroke-width="0.5"/>
    <line x1="0" y1="160" x2="960" y2="160" stroke="white" stroke-width="0.5"/>
    <line x1="0" y1="240" x2="960" y2="240" stroke="white" stroke-width="0.5"/>
    <line x1="0" y1="320" x2="960" y2="320" stroke="white" stroke-width="0.5"/>
    <line x1="0" y1="400" x2="960" y2="400" stroke="white" stroke-width="0.5"/>
    <line x1="0" y1="480" x2="960" y2="480" stroke="white" stroke-width="0.5"/>
    <line x1="0" y1="560" x2="960" y2="560" stroke="white" stroke-width="0.5"/>
    <line x1="120" y1="0" x2="120" y2="640" stroke="white" stroke-width="0.5"/>
    <line x1="240" y1="0" x2="240" y2="640" stroke="white" stroke-width="0.5"/>
    <line x1="360" y1="0" x2="360" y2="640" stroke="white" stroke-width="0.5"/>
    <line x1="480" y1="0" x2="480" y2="640" stroke="white" stroke-width="0.5"/>
    <line x1="600" y1="0" x2="600" y2="640" stroke="white" stroke-width="0.5"/>
    <line x1="720" y1="0" x2="720" y2="640" stroke="white" stroke-width="0.5"/>
    <line x1="840" y1="0" x2="840" y2="640" stroke="white" stroke-width="0.5"/>
  </g>

  <!-- Title -->
  <text x="480" y="34" text-anchor="middle" fill="#ffffff" font-size="13" font-weight="700" letter-spacing="4" opacity="0.9">OPEN-AGENT-HARNESS — SYSTEM ARCHITECTURE</text>
  <line x1="60" y1="42" x2="400" y2="42" stroke="#ffffff" stroke-width="0.5" opacity="0.2"/>
  <line x1="560" y1="42" x2="900" y2="42" stroke="#ffffff" stroke-width="0.5" opacity="0.2"/>

  <!-- ═══ L0: Tailscale Layer ═══ -->
  <rect x="30" y="580" width="900" height="44" rx="4" fill="#0d1829" stroke="#5b8cff" stroke-width="1" opacity="0.8"/>
  <text x="50" y="596" fill="#5b8cff" font-size="9" font-weight="700" letter-spacing="2">L0</text>
  <text x="72" y="596" fill="#5b8cff" font-size="9" letter-spacing="1">TAILSCALE</text>
  <text x="480" y="600" text-anchor="middle" fill="#8ab4ff" font-size="10" letter-spacing="1">E2E 암호화 메쉬 네트워크 — 100.x.x.x</text>
  <text x="480" y="614" text-anchor="middle" fill="#5b8cff" font-size="9" opacity="0.7">WireGuard-based · Zero-config · Cross-NAT</text>

  <!-- ═══ L1: Phoenix Channel (center bus) ═══ -->
  <rect x="300" y="310" width="360" height="120" rx="6" fill="url(#nasGrad)" stroke="#00d9ff" stroke-width="1.5"/>
  <!-- Glow effect -->
  <rect x="300" y="310" width="360" height="120" rx="6" fill="none" stroke="#00d9ff" stroke-width="8" opacity="0.08"/>

  <text x="480" y="332" text-anchor="middle" fill="#00d9ff" font-size="9" font-weight="700" letter-spacing="3">L1 · PHOENIX CHANNEL BUS</text>

  <!-- Channel badge -->
  <rect x="362" y="340" width="236" height="20" rx="3" fill="#001a2e"/>
  <text x="480" y="354" text-anchor="middle" fill="#00d9ff" font-size="10" font-weight="700">work:LN-YYYYMMDD-XXX</text>

  <!-- Events row -->
  <rect x="315" y="368" width="80" height="15" rx="2" fill="#003344"/>
  <text x="355" y="379" text-anchor="middle" fill="#00d9ff" font-size="8">task.assign</text>
  <rect x="401" y="368" width="80" height="15" rx="2" fill="#003344"/>
  <text x="441" y="379" text-anchor="middle" fill="#00d9ff" font-size="8">task.result</text>
  <rect x="487" y="368" width="80" height="15" rx="2" fill="#003344"/>
  <text x="527" y="379" text-anchor="middle" fill="#00d9ff" font-size="8">task.progress</text>
  <rect x="573" y="368" width="72" height="15" rx="2" fill="#003344"/>
  <text x="609" y="379" text-anchor="middle" fill="#00d9ff" font-size="8">mailbox.post</text>

  <!-- State Store badge -->
  <rect x="340" y="392" width="140" height="28" rx="3" fill="#001829"/>
  <text x="410" y="406" text-anchor="middle" fill="#4dbbdd" font-size="8" font-weight="700">ETS StateStore</text>
  <text x="410" y="417" text-anchor="middle" fill="#4dbbdd" font-size="7" opacity="0.7">state · mailbox · work-keys</text>

  <rect x="490" y="392" width="140" height="28" rx="3" fill="#001829"/>
  <text x="560" y="406" text-anchor="middle" fill="#4dbbdd" font-size="8" font-weight="700">Phoenix.Presence</text>
  <text x="560" y="417" text-anchor="middle" fill="#4dbbdd" font-size="7" opacity="0.7">agent online/offline tracking</text>

  <!-- L1 label outside -->
  <text x="290" y="375" text-anchor="end" fill="#5b8cff" font-size="9" font-weight="700" letter-spacing="1">ws://</text>

  <!-- ═══ NAS / Server ═══ -->
  <rect x="340" y="60" width="280" height="220" rx="6" fill="url(#nasGrad)" stroke="#00d9ff" stroke-width="1.2"/>
  <rect x="340" y="60" width="280" height="220" rx="6" fill="none" stroke="#00d9ff" stroke-width="6" opacity="0.06"/>

  <!-- NAS header -->
  <rect x="340" y="60" width="280" height="28" rx="6" fill="#00d9ff" opacity="0.12"/>
  <rect x="340" y="76" width="280" height="12" fill="#00d9ff" opacity="0.12"/>
  <text x="480" y="79" text-anchor="middle" fill="#00d9ff" font-size="10" font-weight="700" letter-spacing="2">NAS / SERVER  ·  24/7</text>
  <text x="480" y="92" text-anchor="middle" fill="#00d9ff" font-size="8" opacity="0.7">packages/phoenix-server (Elixir 1.16+)</text>

  <!-- Phoenix server internals -->
  <rect x="356" y="104" width="248" height="32" rx="3" fill="#001a2e"/>
  <text x="480" y="118" text-anchor="middle" fill="#ffffff" font-size="10" font-weight="700">HarnessServer.Endpoint</text>
  <text x="480" y="130" text-anchor="middle" fill="#8ab4ff" font-size="8">:4000  ·  WebSocket + REST</text>

  <!-- REST endpoints -->
  <text x="365" y="152" fill="#4dbbdd" font-size="8" font-weight="700">REST API</text>
  <text x="365" y="164" fill="#6cb4cc" font-size="7.5">GET  /api/health</text>
  <text x="365" y="175" fill="#6cb4cc" font-size="7.5">GET  /api/presence</text>
  <text x="365" y="186" fill="#6cb4cc" font-size="7.5">POST /api/work-keys</text>
  <text x="365" y="197" fill="#6cb4cc" font-size="7.5">GET  /api/work-keys/latest</text>
  <text x="365" y="208" fill="#6cb4cc" font-size="7.5">GET|PATCH /api/state/:wk</text>
  <text x="365" y="219" fill="#6cb4cc" font-size="7.5">GET|POST  /api/mailbox/:agent</text>

  <!-- WorkChannel badge -->
  <rect x="476" y="148" width="116" height="56" rx="3" fill="#001220"/>
  <text x="534" y="162" text-anchor="middle" fill="#00d9ff" font-size="8" font-weight="700">WorkChannel</text>
  <text x="534" y="174" text-anchor="middle" fill="#4dbbdd" font-size="7">join · handle_in</text>
  <text x="534" y="185" text-anchor="middle" fill="#4dbbdd" font-size="7">broadcast!</text>
  <text x="534" y="196" text-anchor="middle" fill="#4dbbdd" font-size="7">Presence.track</text>

  <!-- verifier on NAS -->
  <rect x="356" y="234" width="248" height="34" rx="3" fill="#001a2e"/>
  <text x="480" y="249" text-anchor="middle" fill="#00ff88" font-size="9" font-weight="700">verifier@nas</text>
  <text x="480" y="261" text-anchor="middle" fill="#00cc66" font-size="7.5">oah-agent ws://... verifier  ·  lint · typecheck · test</text>

  <!-- L1 connector NAS → channel -->
  <line x1="480" y1="280" x2="480" y2="310" stroke="#00d9ff" stroke-width="1.5" stroke-dasharray="4,3" marker-end="url(#arrow-cyan)"/>
  <text x="490" y="298" fill="#00d9ff" font-size="7.5" opacity="0.8">phx_join</text>

  <!-- oah-server label -->
  <rect x="356" y="282" width="248" height="18" rx="2" fill="#002233" stroke="#00d9ff" stroke-width="0.8"/>
  <text x="480" y="294" text-anchor="middle" fill="#00d9ff" font-size="8" font-weight="700">$ oah-server</text>

  <!-- ═══ Mac / Orchestrator ═══ -->
  <rect x="30" y="90" width="240" height="190" rx="6" fill="url(#macGrad)" stroke="#00ff88" stroke-width="1.2"/>
  <rect x="30" y="90" width="240" height="190" rx="6" fill="none" stroke="#00ff88" stroke-width="6" opacity="0.06"/>

  <rect x="30" y="90" width="240" height="28" rx="6" fill="#00ff88" opacity="0.1"/>
  <rect x="30" y="106" width="240" height="12" fill="#00ff88" opacity="0.1"/>
  <text x="150" y="109" text-anchor="middle" fill="#00ff88" font-size="10" font-weight="700" letter-spacing="2">MAC · ORCHESTRATOR</text>
  <text x="150" y="122" text-anchor="middle" fill="#00ff88" font-size="8" opacity="0.7">orchestrator@mac</text>

  <!-- OpenCode + harness -->
  <rect x="46" y="134" width="208" height="44" rx="3" fill="#001a0a"/>
  <text x="150" y="150" text-anchor="middle" fill="#ffffff" font-size="9" font-weight="700">OpenCode + harness plugin</text>
  <text x="150" y="162" text-anchor="middle" fill="#88cc88" font-size="7.5">task.assign → task.result 조율</text>
  <text x="150" y="172" text-anchor="middle" fill="#88cc88" font-size="7.5">Work Key 발급 · approval gate</text>

  <!-- agent daemon -->
  <rect x="46" y="186" width="208" height="44" rx="3" fill="#001a0a"/>
  <text x="150" y="202" text-anchor="middle" fill="#00ff88" font-size="9" font-weight="700">agent-daemon (Bun)</text>
  <text x="150" y="214" text-anchor="middle" fill="#88cc88" font-size="7.5">Phoenix 5-tuple protocol</text>
  <text x="150" y="224" text-anchor="middle" fill="#88cc88" font-size="7.5">heartbeat · reconnect</text>

  <!-- L3 TTY -->
  <rect x="46" y="238" width="208" height="28" rx="3" fill="#001a0a"/>
  <text x="150" y="252" text-anchor="middle" fill="#00ff88" font-size="8" font-weight="700">L3 · TTY session</text>
  <text x="150" y="263" text-anchor="middle" fill="#88cc88" font-size="7">spawn(opencode run ...)</text>

  <!-- oah-agent label -->
  <rect x="46" y="274" width="208" height="18" rx="2" fill="#001a0a" stroke="#00ff88" stroke-width="0.8"/>
  <text x="150" y="286" text-anchor="middle" fill="#00ff88" font-size="8" font-weight="700">$ oah-agent ws://... orchestrator</text>

  <!-- ═══ GPU PC / Builder ═══ -->
  <rect x="690" y="90" width="240" height="190" rx="6" fill="url(#gpuGrad)" stroke="#ff8c42" stroke-width="1.2"/>
  <rect x="690" y="90" width="240" height="190" rx="6" fill="none" stroke="#ff8c42" stroke-width="6" opacity="0.06"/>

  <rect x="690" y="90" width="240" height="28" rx="6" fill="#ff8c42" opacity="0.1"/>
  <rect x="690" y="106" width="240" height="12" fill="#ff8c42" opacity="0.1"/>
  <text x="810" y="109" text-anchor="middle" fill="#ff8c42" font-size="10" font-weight="700" letter-spacing="2">GPU PC · BUILDER</text>
  <text x="810" y="122" text-anchor="middle" fill="#ff8c42" font-size="8" opacity="0.7">builder@gpu</text>

  <rect x="706" y="134" width="208" height="44" rx="3" fill="#1a0a00"/>
  <text x="810" y="150" text-anchor="middle" fill="#ffffff" font-size="9" font-weight="700">OpenCode + harness plugin</text>
  <text x="810" y="162" text-anchor="middle" fill="#cc8866" font-size="7.5">task.assign 수신 → 코드 작성</text>
  <text x="810" y="172" text-anchor="middle" fill="#cc8866" font-size="7.5">ARTIFACT: path 출력</text>

  <rect x="706" y="186" width="208" height="44" rx="3" fill="#1a0a00"/>
  <text x="810" y="202" text-anchor="middle" fill="#ff8c42" font-size="9" font-weight="700">agent-daemon (Bun)</text>
  <text x="810" y="214" text-anchor="middle" fill="#cc8866" font-size="7.5">task.result ← opencode stdout</text>
  <text x="810" y="224" text-anchor="middle" fill="#cc8866" font-size="7.5">ARTIFACT: 파싱</text>

  <rect x="706" y="238" width="208" height="28" rx="3" fill="#1a0a00"/>
  <text x="810" y="252" text-anchor="middle" fill="#ff8c42" font-size="8" font-weight="700">L3 · TTY session</text>
  <text x="810" y="263" text-anchor="middle" fill="#cc8866" font-size="7">spawn(opencode run ...)</text>

  <rect x="706" y="274" width="208" height="18" rx="2" fill="#1a0a00" stroke="#ff8c42" stroke-width="0.8"/>
  <text x="810" y="286" text-anchor="middle" fill="#ff8c42" font-size="8" font-weight="700">$ oah-agent ws://... builder</text>

  <!-- ═══ L1 connections (machines → Phoenix channel) ═══ -->

  <!-- Mac → Channel (task.assign) -->
  <path d="M 270 220 Q 285 370 300 370" stroke="#00ff88" stroke-width="1.5" fill="none" marker-end="url(#arrow-green)"/>
  <text x="230" y="300" fill="#00ff88" font-size="8" font-weight="700">task.assign</text>
  <text x="230" y="312" fill="#00cc66" font-size="7">state.update</text>

  <!-- Channel → Mac (task.result) -->
  <path d="M 300 390 Q 285 420 270 250" stroke="#00d9ff" stroke-width="1.2" fill="none" stroke-dasharray="5,3" marker-end="url(#arrow-cyan)"/>
  <text x="192" y="356" fill="#00d9ff" font-size="8">task.result</text>
  <text x="192" y="368" fill="#4dbbdd" font-size="7">broadcast!</text>

  <!-- GPU → Channel (task.result) -->
  <path d="M 690 220 Q 675 370 660 370" stroke="#ff8c42" stroke-width="1.5" fill="none" marker-end="url(#arrow-orange)"/>
  <text x="665" y="300" fill="#ff8c42" font-size="8" font-weight="700">task.result</text>
  <text x="665" y="312" fill="#cc6622" font-size="7">task.progress</text>

  <!-- Channel → GPU (task.assign) -->
  <path d="M 660 390 Q 675 420 690 250" stroke="#00d9ff" stroke-width="1.2" fill="none" stroke-dasharray="5,3" marker-end="url(#arrow-cyan)"/>
  <text x="660" y="356" fill="#00d9ff" font-size="8">task.assign</text>

  <!-- ═══ L4 A2A Protocol (top) ═══ -->
  <rect x="30" y="56" width="900" height="24" rx="3" fill="#0d0820" stroke="#7c5cbf" stroke-width="0.8" opacity="0.9"/>
  <text x="50" y="70" fill="#7c5cbf" font-size="9" font-weight="700" letter-spacing="2">L4</text>
  <text x="72" y="70" fill="#7c5cbf" font-size="9" letter-spacing="1">A2A</text>
  <text x="480" y="70" text-anchor="middle" fill="#9b7fd4" font-size="9" letter-spacing="1">task.assign · task.blocked · task.approval_requested · A2A Protocol over L1</text>

  <!-- L3 label (left side) -->
  <text x="14" y="222" fill="#00ff88" font-size="9" font-weight="700" letter-spacing="1" transform="rotate(-90,14,222)">L3 TTY</text>
  <text x="948" y="222" fill="#ff8c42" font-size="9" font-weight="700" letter-spacing="1" transform="rotate(90,948,222)">L3 TTY</text>

  <!-- L2 MCP labels -->
  <rect x="40" y="302" width="70" height="30" rx="3" fill="#0d1020" stroke="#5b8cff" stroke-width="0.8" opacity="0.7"/>
  <text x="75" y="315" text-anchor="middle" fill="#5b8cff" font-size="8" font-weight="700">L2 · MCP</text>
  <text x="75" y="326" text-anchor="middle" fill="#4466cc" font-size="7">file · DB · tools</text>

  <rect x="850" y="302" width="70" height="30" rx="3" fill="#0d1020" stroke="#5b8cff" stroke-width="0.8" opacity="0.7"/>
  <text x="885" y="315" text-anchor="middle" fill="#5b8cff" font-size="8" font-weight="700">L2 · MCP</text>
  <text x="885" y="326" text-anchor="middle" fill="#4466cc" font-size="7">file · DB · tools</text>

  <!-- Tailscale connections (dotted blue) -->
  <line x1="150" y1="575" x2="150" y2="624" stroke="#5b8cff" stroke-width="1" stroke-dasharray="3,3" opacity="0.6"/>
  <line x1="480" y1="575" x2="480" y2="624" stroke="#5b8cff" stroke-width="1" stroke-dasharray="3,3" opacity="0.6"/>
  <line x1="810" y1="575" x2="810" y2="624" stroke="#5b8cff" stroke-width="1" stroke-dasharray="3,3" opacity="0.6"/>

  <!-- L1 bottom connector (all machines share channel) -->
  <rect x="30" y="432" width="900" height="18" rx="3" fill="#001829" stroke="#00d9ff" stroke-width="0.6" opacity="0.5"/>
  <text x="480" y="444" text-anchor="middle" fill="#00d9ff" font-size="8" opacity="0.7" letter-spacing="2">L1 · PHOENIX PUBSUB BROADCAST DOMAIN · work:LN-YYYYMMDD-XXX</text>

  <!-- Lines from machines down to L1 bar -->
  <line x1="150" y1="310" x2="150" y2="432" stroke="#00ff88" stroke-width="1" stroke-dasharray="4,3" opacity="0.3"/>
  <line x1="480" y1="430" x2="480" y2="432" stroke="#00d9ff" stroke-width="1" opacity="0.3"/>
  <line x1="810" y1="310" x2="810" y2="432" stroke="#ff8c42" stroke-width="1" stroke-dasharray="4,3" opacity="0.3"/>

  <!-- Lines from L1 bar to Tailscale -->
  <line x1="150" y1="450" x2="150" y2="575" stroke="#5b8cff" stroke-width="1" stroke-dasharray="4,3" opacity="0.3"/>
  <line x1="480" y1="450" x2="480" y2="575" stroke="#5b8cff" stroke-width="1" stroke-dasharray="4,3" opacity="0.3"/>
  <line x1="810" y1="450" x2="810" y2="575" stroke="#5b8cff" stroke-width="1" stroke-dasharray="4,3" opacity="0.3"/>

  <!-- Legend -->
  <rect x="30" y="460" width="260" height="108" rx="3" fill="#050810" stroke="#2a3a4a" stroke-width="1" opacity="0.9"/>
  <text x="44" y="476" fill="#ffffff" font-size="8" font-weight="700" letter-spacing="1" opacity="0.8">LEGEND</text>
  <line x1="44" y1="478" x2="44" y2="480" stroke="none"/>

  <line x1="44" y1="490" x2="64" y2="490" stroke="#00d9ff" stroke-width="1.5"/>
  <text x="70" y="494" fill="#8ab4cc" font-size="8">Phoenix WebSocket (5-tuple)</text>

  <line x1="44" y1="505" x2="64" y2="505" stroke="#00ff88" stroke-width="1.5"/>
  <text x="70" y="509" fill="#8ab4cc" font-size="8">Orchestrator → Channel</text>

  <line x1="44" y1="520" x2="64" y2="520" stroke="#ff8c42" stroke-width="1.5"/>
  <text x="70" y="524" fill="#8ab4cc" font-size="8">Builder → Channel</text>

  <line x1="44" y1="535" x2="64" y2="535" stroke="#00d9ff" stroke-width="1.2" stroke-dasharray="4,2"/>
  <text x="70" y="539" fill="#8ab4cc" font-size="8">Server broadcast (→ all agents)</text>

  <line x1="44" y1="550" x2="64" y2="550" stroke="#5b8cff" stroke-width="1" stroke-dasharray="3,2"/>
  <text x="70" y="554" fill="#8ab4cc" font-size="8">Tailscale (L0 transport)</text>

  <text x="280" y="554" text-anchor="end" fill="#2a3a4a" font-size="7">github.com/baryonlabs/open-agent-harness</text>
</svg>
